<?xml version="1.0" encoding="utf-8"?>
<svg version="1.1" xmlns="http://www.w3.org/2000/svg" xmlns:xlink="http://www.w3.org/1999/xlink" x="0px" y="0px"
   viewBox="0 0 128 128" style="enable-background:new 0 0 128 128;" xml:space="preserve">
<style type="text/css">
  .st4{fill:#00AFEB;}
  .st5{fill:none;}
  .st6{fill:#C6D70C;}
  .st7{fill:#91C620;}
  .st8{fill:#79BE27;}
</style>
<g>
  <path class="st4" d="M70.1,61.7c-2.3,1.5-4.6,3.2-6.8,4.8C56.5,71.8,50.6,78,46.1,84.3c2.8,1.3,5.6,2.4,8.6,3.6
    c6,2.2,11.9,3.7,17.6,4.5C73.4,83.7,72.9,73.4,70.1,61.7z"/>
  <path class="st5" d="M70.1,61.7c-2.3,1.5-4.6,3.2-6.8,4.8C56.5,71.8,50.6,78,46.1,84.3c2.8,1.3,5.6,2.4,8.6,3.6
    c6,2.2,11.9,3.7,17.6,4.5C73.4,83.7,72.9,73.4,70.1,61.7z"/>
  <path class="st6" d="M63.3,66.5c2.2-1.7,4.4-3.3,6.8-4.8c0,0,0,0,0,0C59.3,16.9,29-3.2,6.8,15.8c-16.3,13.9-3.4,49,39.4,68.5
    C50.6,78,56.5,71.8,63.3,66.5z"/>
  <path class="st7" d="M46.1,84.3c-10.2,14.6-12.4,29.7,0.6,34.2c11.9,4.1,23.1-6.3,25.5-26.2c-5.7-0.8-11.6-2.2-17.6-4.5
    C51.8,86.7,48.9,85.5,46.1,84.3z"/>
  <path class="st8" d="M127.1,60.8c-7.8-21.9-34.8-14-57.1,0.9c2.8,11.7,3.3,22,2.3,30.6C106.7,97.1,133.2,77.9,127.1,60.8z"/>
</g>
</svg>
